<svg width="330" height="195" viewBox="0 0 330 195" fill="none" xmlns="http://www.w3.org/2000/svg" role="img" aria-labelledby="title desc">
  <title id="title">Most Used Languages</title>
  <desc id="desc">Self-generated language statistics from public owned non-fork repositories</desc>
  <style>
    .header { font: 600 18px 'Segoe UI', Ubuntu, Sans-Serif; fill: #006AFF; }
    .lang { font: 400 11px 'Segoe UI', Ubuntu, Sans-Serif; fill: #417E87; }
  </style>
  <rect x="0.5" y="0.5" width="329" height="194" rx="4.5" fill="#ffffff00" stroke="#e4e2e2"/>
  <text x="25" y="36" class="header">Most Used Languages</text>
  <clipPath id="bar-clip"><rect x="25" y="58" width="280" height="8" rx="4"/></clipPath>
  <g clip-path="url(#bar-clip)"><rect x="25.00" y="58" width="183.59" height="8" fill="#DA5B0B"/><rect x="208.59" y="58" width="51.59" height="8" fill="#3572A5"/><rect x="260.18" y="58" width="17.65" height="8" fill="#e34c26"/><rect x="277.83" y="58" width="8.06" height="8" fill="#e4cc98"/><rect x="285.89" y="58" width="7.82" height="8" fill="#555555"/><rect x="293.72" y="58" width="6.96" height="8" fill="#3D6117"/><rect x="300.67" y="58" width="3.24" height="8" fill="#00004c"/><rect x="303.91" y="58" width="1.09" height="8" fill="#f34b7d"/></g>
  <circle cx="30" cy="87" r="5" fill="#DA5B0B"/><text x="40" y="91" class="lang">Jupyter Notebook 65.0%</text><circle cx="30" cy="111" r="5" fill="#3572A5"/><text x="40" y="115" class="lang">Python 18.3%</text><circle cx="30" cy="135" r="5" fill="#e34c26"/><text x="40" y="139" class="lang">HTML 6.2%</text><circle cx="30" cy="159" r="5" fill="#e4cc98"/><text x="40" y="163" class="lang">Tcl 2.9%</text><circle cx="185" cy="87" r="5" fill="#555555"/><text x="195" y="91" class="lang">C 2.8%</text><circle cx="185" cy="111" r="5" fill="#3D6117"/><text x="195" y="115" class="lang">TeX 2.5%</text><circle cx="185" cy="135" r="5" fill="#00004c"/><text x="195" y="139" class="lang">Terra 1.1%</text><circle cx="185" cy="159" r="5" fill="#f34b7d"/><text x="195" y="163" class="lang">C++ 0.4%</text>
</svg>
